<?xml version="1.0" encoding="UTF-8"?>
<svg id="Capa_1" xmlns="http://www.w3.org/2000/svg" version="1.1" viewBox="0 0 866.48 369.28">
  <!-- Generator: Adobe Illustrator 29.4.0, SVG Export Plug-In . SVG Version: 2.1.0 Build 152)  -->
  <defs>
    <style>
      .st0 {
        fill: none;
        stroke: #091f5b;
        stroke-miterlimit: 10;
        stroke-width: 2px;
      }

      .st1 {
        fill: #01205f;
      }

      .st2 {
        fill: #091f5b;
      }
    </style>
  </defs>
  <g>
    <g>
      <path class="st2" d="M413.82,178.77c-2.94,2.94-6.16,4.99-9.69,6.16-3.52,1.17-7.63,1.76-12.33,1.76-6.75,0-11.99-1.2-15.71-3.6-3.72-2.4-6.02-6.48-6.9-12.26l-2.2-14.68c-.98-6.85-2.33-12.04-4.04-15.56-1.71-3.52-4.28-5.28-7.71-5.28h-6.6v33.76c0,3.72.27,6.41.81,8.07.54,1.67,1.49,2.79,2.86,3.38,1.37.59,3.62.98,6.75,1.17v2.94c-5.68-.29-13.85-.44-24.51-.44-11.84,0-20.55.15-26.13.44v-2.94c3.13-.2,5.41-.59,6.83-1.17,1.42-.59,2.37-1.71,2.86-3.38.49-1.66.73-4.35.73-8.07v-72.8c0-3.72-.27-6.41-.81-8.07-.54-1.66-1.49-2.79-2.86-3.38-1.37-.59-3.62-.98-6.75-1.17v-2.94c5.58.29,13.99.44,25.25.44l16.88-.15c1.96-.1,4.21-.15,6.75-.15,14.87,0,25.95,2.11,33.25,6.31,7.29,4.21,10.93,10.62,10.93,19.23,0,7.34-2.74,13.6-8.22,18.79-5.48,5.19-14.68,8.37-27.59,9.54,9.98.69,17.52,2.57,22.6,5.65,5.09,3.08,8.22,7.61,9.39,13.58l3.08,15.26c.68,3.62,1.52,6.12,2.5,7.49.98,1.37,2.35,2.06,4.11,2.06s3.28-.64,4.55-1.91l1.91,1.91ZM351.51,84.68c-1.13.69-1.89,1.91-2.27,3.67-.39,1.76-.59,4.4-.59,7.93v36.11h3.96c6.95,0,11.69-2.13,14.24-6.38,2.54-4.26,3.82-10.25,3.82-17.98s-1.1-14.09-3.3-18.2c-2.2-4.11-5.8-6.17-10.79-6.17-2.25,0-3.94.34-5.06,1.03Z"/>
      <path class="st2" d="M418.15,180.6c-3.18-3.38-4.77-7.61-4.77-12.7,0-4.4,1.15-8.05,3.45-10.93,2.3-2.89,5.01-5.11,8.15-6.68,3.13-1.56,7.19-3.18,12.18-4.84,5.28-1.76,9.15-3.38,11.6-4.84,2.44-1.47,3.67-3.52,3.67-6.16v-13.06c0-3.13-.78-5.92-2.35-8.37-1.57-2.44-4.26-3.67-8.07-3.67-3.03,0-5.77.83-8.22,2.5,3.33,1.17,5.8,2.91,7.41,5.21,1.61,2.3,2.42,4.87,2.42,7.71,0,3.82-1.35,6.88-4.04,9.17-2.69,2.3-5.94,3.45-9.76,3.45s-6.83-1.2-9.03-3.6c-2.2-2.4-3.3-5.45-3.3-9.17,0-2.94.73-5.48,2.2-7.63,1.47-2.15,3.77-4.11,6.9-5.87,5.48-3.13,13.31-4.7,23.48-4.7,5.38,0,10.03.51,13.94,1.54,3.91,1.03,7.24,2.96,9.98,5.8,1.96,2.05,3.25,4.62,3.89,7.71.64,3.08.95,7.36.95,12.84v39.34c0,2.45.17,4.11.51,4.99.34.88.95,1.32,1.83,1.32.68,0,1.42-.22,2.2-.66.78-.44,1.52-.95,2.2-1.54l1.47,2.5c-4.21,3.62-10.23,5.43-18.05,5.43-5.87,0-9.98-1-12.33-3.01-2.35-2-3.62-4.72-3.82-8.15-4.6,7.44-11.45,11.16-20.55,11.16-6.26,0-10.99-1.69-14.16-5.06ZM452.42,171.43v-30.97c-.88,1.47-2.5,3.38-4.84,5.72-2.64,2.55-4.65,5.02-6.02,7.41-1.37,2.4-2.05,5.65-2.05,9.76,0,7.05,2.5,10.57,7.49,10.57,2.05,0,3.86-.83,5.43-2.5Z"/>
      <path class="st2" d="M566.17,115.8c4.7,6.26,7.05,15.41,7.05,27.45,0,15.56-3.13,26.69-9.39,33.39-6.26,6.7-14.53,10.05-24.81,10.05-5.68,0-10.23-.93-13.65-2.79v12.18c0,4.5,1.05,7.63,3.16,9.39,2.1,1.76,5.26,2.64,9.47,2.64v3.08l-4.26-.15c-11.74-.29-19.33-.44-22.75-.44-2.94,0-9.69.2-20.26.59v-3.08c3.03,0,5.16-.76,6.38-2.28,1.22-1.52,1.83-4.28,1.83-8.29v-72.95c0-4.5-.61-7.78-1.83-9.83-1.22-2.05-3.35-3.08-6.38-3.08v-3.08c3.03.29,6.07.44,9.1.44,10.18,0,18.69-.68,25.54-2.06v10.42c4.5-7.34,11.94-11.01,22.31-11.01,7.63,0,13.8,3.13,18.49,9.39ZM542.17,173.56c2.4-5.82,3.6-14.8,3.6-26.93s-.88-20.48-2.64-25.32c-1.76-4.84-4.16-7.27-7.19-7.27-2.84,0-5.31,1-7.41,3.01-2.11,2.01-3.16,4.53-3.16,7.56v56.51c1.27.78,2.98,1.17,5.14,1.17,5.38,0,9.27-2.91,11.67-8.73Z"/>
      <path class="st2" d="M615.2,117.42c4.4-7.34,12.18-11.01,23.34-11.01,7.83,0,13.36,1.96,16.59,5.87,1.47,1.76,2.54,4.13,3.23,7.12.68,2.99,1.03,6.92,1.03,11.82v39.78c0,4.01.61,6.78,1.83,8.29,1.22,1.52,3.35,2.27,6.38,2.27v3.08c-10.57-.39-17.42-.59-20.55-.59-3.33,0-10.27.2-20.84.59v-3.08c2.54,0,4.3-.76,5.28-2.27.98-1.52,1.47-4.28,1.47-8.29v-47.7c0-3.13-.56-5.45-1.69-6.97-1.13-1.52-2.96-2.27-5.5-2.27-2.84,0-5.31,1-7.41,3.01-2.1,2.01-3.16,4.53-3.16,7.56v46.38c0,4.01.49,6.78,1.47,8.29.98,1.52,2.74,2.27,5.28,2.27v3.08c-9.79-.39-16.24-.59-19.38-.59-3.33,0-10.67.2-22.02.59v-3.08c3.03,0,5.16-.76,6.38-2.27,1.22-1.52,1.83-4.28,1.83-8.29v-83.52c0-4.5-.61-7.78-1.83-9.83-1.22-2.05-3.35-3.08-6.38-3.08v-3.08c3.03.29,6.07.44,9.1.44,10.18,0,18.69-.68,25.54-2.05v47.56Z"/>
      <path class="st2" d="M677.21,180.6c-3.18-3.38-4.77-7.61-4.77-12.7,0-4.4,1.15-8.05,3.45-10.93,2.3-2.89,5.01-5.11,8.15-6.68,3.13-1.56,7.19-3.18,12.18-4.84,5.28-1.76,9.15-3.38,11.59-4.84,2.45-1.47,3.67-3.52,3.67-6.16v-13.06c0-3.13-.78-5.92-2.35-8.37-1.57-2.44-4.26-3.67-8.07-3.67-3.04,0-5.78.83-8.22,2.5,3.33,1.17,5.8,2.91,7.41,5.21,1.61,2.3,2.42,4.87,2.42,7.71,0,3.82-1.35,6.88-4.04,9.17-2.69,2.3-5.95,3.45-9.76,3.45s-6.82-1.2-9.03-3.6c-2.2-2.4-3.3-5.45-3.3-9.17,0-2.94.73-5.48,2.2-7.63,1.47-2.15,3.77-4.11,6.9-5.87,5.48-3.13,13.31-4.7,23.48-4.7,5.38,0,10.03.51,13.94,1.54,3.91,1.03,7.24,2.96,9.98,5.8,1.96,2.05,3.25,4.62,3.89,7.71.64,3.08.95,7.36.95,12.84v39.34c0,2.45.17,4.11.51,4.99.34.88.95,1.32,1.83,1.32.68,0,1.42-.22,2.2-.66.78-.44,1.52-.95,2.2-1.54l1.47,2.5c-4.21,3.62-10.23,5.43-18.05,5.43-5.87,0-9.98-1-12.33-3.01-2.35-2-3.62-4.72-3.82-8.15-4.6,7.44-11.45,11.16-20.55,11.16-6.26,0-10.99-1.69-14.16-5.06ZM711.48,171.43v-30.97c-.88,1.47-2.5,3.38-4.84,5.72-2.64,2.55-4.65,5.02-6.02,7.41-1.37,2.4-2.05,5.65-2.05,9.76,0,7.05,2.5,10.57,7.49,10.57,2.05,0,3.86-.83,5.43-2.5Z"/>
      <path class="st2" d="M813.79,160.86l2.5.88c-2.15,6.85-5.8,12.72-10.94,17.61-5.14,4.89-11.72,7.34-19.74,7.34-10.27,0-18.49-3.18-24.66-9.54-6.17-6.36-9.25-16.54-9.25-30.53s3.45-23.46,10.35-30.16c6.9-6.7,16.02-10.05,27.38-10.05,18.49,0,27.74,10.96,27.74,32.88h-37.87c-.1,1.17-.15,2.94-.15,5.28,0,9.39,1.64,16.1,4.92,20.11,3.28,4.01,7.27,6.02,11.96,6.02,7.14,0,13.06-3.28,17.76-9.83ZM778.71,136.5h17.03c.1-7.83-.46-14.24-1.69-19.23-1.22-4.99-3.11-7.49-5.65-7.49-5.48,0-8.71,8.91-9.69,26.71Z"/>
      <path class="st2" d="M858.26,170.99c0,4.01.61,6.78,1.83,8.29,1.22,1.52,3.35,2.27,6.38,2.27v3.08c-10.57-.39-17.52-.59-20.84-.59s-10.67.2-22.02.59v-3.08c3.03,0,5.16-.76,6.38-2.27,1.22-1.52,1.83-4.28,1.83-8.29v-83.52c0-4.5-.61-7.78-1.83-9.83-1.22-2.05-3.35-3.08-6.38-3.08v-3.08c3.03.29,6.07.44,9.1.44,10.18,0,18.69-.68,25.54-2.05v101.13Z"/>
    </g>
    <g>
      <path class="st2" d="M338.32,298.65c-5.48,0-10.31-1.31-14.49-3.94-4.18-2.63-7.46-6.27-9.83-10.93s-3.56-10.04-3.56-16.14,1.19-11.57,3.56-16.23c2.37-4.66,5.69-8.3,9.96-10.93,4.27-2.63,9.17-3.94,14.7-3.94,4.12,0,7.91.79,11.36,2.37,3.45,1.58,6.36,3.8,8.73,6.65,2.37,2.85,3.98,6.2,4.83,10.04h-4.49c-1.36-4.69-3.89-8.39-7.58-11.1-3.7-2.71-8.07-4.07-13.09-4.07-4.69,0-8.83,1.14-12.42,3.43-3.59,2.29-6.38,5.47-8.39,9.53-2.01,4.07-3.01,8.81-3.01,14.24s1,10.1,3.01,14.2c2,4.1,4.8,7.27,8.39,9.53,3.59,2.26,7.72,3.39,12.42,3.39,5.03,0,9.43-1.3,13.22-3.9,3.78-2.6,6.38-6.04,7.8-10.34h4.49c-.96,3.62-2.67,6.78-5.13,9.49-2.46,2.71-5.45,4.83-8.98,6.36-3.53,1.53-7.36,2.29-11.48,2.29Z"/>
      <path class="st2" d="M411.37,297.71h-4.07l22.29-60.17h6.02l22.54,60.17h-4.15l-6.36-16.86h-30l-6.27,16.86ZM432.05,241.87l-13.05,35.25h27.29l-13.22-35.25c-.06-.28-.14-.55-.25-.81-.11-.25-.2-.49-.25-.72-.06.17-.13.41-.21.72-.08.31-.18.58-.3.81Z"/>
      <path class="st2" d="M529.93,275.09h-19.15v-3.73h18.47c4.69,0,8.36-1.44,11.02-4.32,2.65-2.88,3.98-6.55,3.98-11.02s-1.31-8.11-3.94-10.76c-2.63-2.66-6.14-3.98-10.55-3.98h-22.29v-3.73h22.46c3.84,0,7.13.78,9.87,2.33,2.74,1.55,4.86,3.73,6.36,6.52,1.5,2.8,2.25,6.06,2.25,9.79,0,3.5-.75,6.69-2.25,9.58-1.5,2.88-3.63,5.16-6.4,6.82-2.77,1.67-6.05,2.5-9.83,2.5ZM511.54,237.55v60.17h-4.07v-60.17h4.07Z"/>
      <path class="st2" d="M603.06,237.55v60.17h-4.07v-60.17h4.07Z"/>
      <path class="st2" d="M651.96,241.27v-3.73h41.86v3.73h-41.86ZM674.92,239.24v58.47h-4.07v-58.47h4.07Z"/>
      <path class="st2" d="M734.92,297.71h-4.07l22.29-60.17h6.02l22.54,60.17h-4.15l-6.36-16.86h-30l-6.27,16.86ZM755.6,241.87l-13.05,35.25h27.29l-13.22-35.25c-.06-.28-.14-.55-.25-.81-.11-.25-.2-.49-.25-.72-.06.17-.13.41-.21.72-.08.31-.18.58-.3.81Z"/>
      <path class="st2" d="M835.09,237.55v60.17h-4.07v-60.17h4.07ZM831.61,297.71v-3.73h32.12v3.73h-32.12Z"/>
    </g>
  </g>
  <line class="st0" x1="243.31" x2="243.31" y2="369.28"/>
  <g>
    <g>
      <path class="st2" d="M22.93,71.84"/>
      <line class="st2" x1="24.2" y1="181.66" x2="22.93" y2="181.66"/>
      <path class="st2" d="M28.78,192h37.65c8.66,0,14.86,3.48,18.59,10.43,3.73,6.95,6.9,17.79,9.52,32.5l5.44,30.23c2.01,11.9,6.4,20.31,13.15,25.24,6.75,4.94,15.97,7.41,27.66,7.41,8.86,0,16.42-1.36,22.67-4.08,6.25-2.72,12.09-7.2,17.53-13.45l-4.23-3.63c-2.22,2.42-4.19,4.13-5.9,5.14-1.71,1.01-3.77,1.61-6.19,1.81-3.83,0-6.8-1.61-8.92-4.84-2.11-3.22-3.98-8.87-5.59-16.93l-6.95-31.14c-2.62-12.49-8.37-21.86-17.23-28.11-8.87-6.25-22.37-10.17-40.51-11.79,24.19-2.82,41.52-9.67,52-20.56,10.48-10.88,15.72-23.47,15.72-37.79,0-16.93-7.01-29.92-21.01-38.99-14.01-9.07-34.91-13.61-62.73-13.61-5.24,0-31.01.11-35.04.3l-5.64.05v6.12h6.74c4.6,0,24.56-.74,30-.74,13.3,0,22.87,4.23,28.72,12.7,5.84,8.46,8.77,20.96,8.77,37.49s-3.08,28.26-9.22,37.03c-6.15,8.77-17.48,13.15-34.01,13.15h-31"/>
    </g>
    <g>
      <polygon class="st1" points="28.88 182.57 48.39 150.59 48.39 294.17 28.88 294.17 28.88 182.57"/>
      <polygon class="st1" points="0 121.21 19.51 147.02 19.51 294.17 0 294.17 0 121.21"/>
    </g>
  </g>
</svg>